<svg height="512pt" viewBox="0 0 512 512" width="512pt" xmlns="http://www.w3.org/2000/svg"><path d="m112.980469 392.535156h356.351562c18.851563 0 34.132813-15.285156 34.132813-34.136718v-315.730469c0-18.851563-15.28125-34.132813-34.132813-34.132813h-426.664062c-18.851563 0-34.132813 15.28125-34.132813 34.132813v315.730469c-.035156 18.132812 14.148438 33.105468 32.253906 34.050781zm0 0" fill="#37474f"/><path d="m105.8125 392.535156h331.777344c18.175781-.691406 32.371094-15.957031 31.742187-34.136718v-315.730469c.628907-18.195313-13.585937-33.464844-31.777343-34.132813h-397.242188c-18.191406.667969-32.40625 15.9375-31.777344 34.132813v315.730469c-.589844 17.511718 12.578125 32.445312 30.027344 34.050781zm0 0" fill="#607d8b"/><path d="m469.332031 51.199219v59.734375h-426.664062v-59.734375c0-4.710938 3.820312-8.53125 8.53125-8.53125h409.601562c4.710938 0 8.53125 3.820312 8.53125 8.53125zm0 0" fill="#2296f3"/><path d="m469.332031 110.933594v204.800781c0 4.710937-3.820312 8.53125-8.53125 8.53125h-409.601562c-4.710938 0-8.53125-3.820313-8.53125-8.53125v-204.800781zm0 0" fill="#cfd8dc"/><path d="m256 392.535156c-72.480469 0-137.828125-43.660156-165.566406-110.628906-27.734375-66.964844-12.398438-144.042969 38.855468-195.292969 69.984376-69.984375 183.453126-69.984375 253.441407 0 69.984375 69.984375 69.984375 183.453125 0 253.441407-33.539063 33.714843-79.171875 52.613281-126.730469 52.480468zm0 0" fill="#0377bc"/><path d="m358.5625 315.902344c-55.078125 55.109375-143.859375 56.84375-201.046875 3.925781-1.363281-1.277344-2.730469-2.558594-4.09375-3.925781-41.492187-41.484375-53.910156-103.882813-31.457031-158.09375 22.453125-54.210938 75.351562-89.554688 134.027344-89.554688 58.675781 0 111.574218 35.34375 134.023437 89.554688 22.453125 54.210937 10.039063 116.609375-31.453125 158.09375zm0 0" fill="#00bcd4"/><path d="m196.265625 392.535156h119.46875v42.664063h-119.46875zm0 0" fill="#37474f"/><path d="m187.734375 435.199219h136.53125c28.277344 0 51.199219 22.921875 51.199219 51.199219 0 9.425781-7.640625 17.066406-17.066406 17.066406h-204.796876c-9.425781 0-17.066406-7.640625-17.066406-17.066406 0-28.277344 22.921875-51.199219 51.199219-51.199219zm0 0" fill="#37474f"/><path d="m187.734375 435.199219h102.398437c28.277344 0 51.199219 22.921875 51.199219 51.199219 0 9.425781-7.640625 17.066406-17.066406 17.066406h-170.664063c-9.425781 0-17.066406-7.640625-17.066406-17.066406 0-28.277344 22.921875-51.199219 51.199219-51.199219zm0 0" fill="#607d8b"/><path d="m460.800781 443.734375c23.5625 0 42.664063 19.101563 42.664063 42.664063 0 9.425781-7.640625 17.066406-17.066406 17.066406h-51.199219c-9.425781 0-17.066407-7.640625-17.066407-17.066406 0-23.5625 19.101563-42.664063 42.667969-42.664063zm0 0" fill="#607d8b"/><path d="m112.46875 320.683594-70.824219 70.824218c-.308593.292969-.59375.609376-.855469.941407-8.820312 10.34375-8.015624 25.78125 1.835938 35.152343 9.847656 9.371094 25.304688 9.410157 35.199219.089844l70.828125-70.828125zm0 0" fill="#795548"/><path d="m469.332031 0h-426.664062c-23.554688.0273438-42.6406252 19.113281-42.667969 42.667969v315.730469c.0273438 17.714843 11.046875 33.550781 27.648438 39.734374-5.28125 15 .5 31.660157 13.9375 40.171876 13.433593 8.507812 30.96875 6.609374 42.269531-4.582032l32.660156-32.65625h71.21875v25.601563c-32.976563.035156-59.695313 26.757812-59.734375 59.730469 0 14.140624 11.460938 25.601562 25.601562 25.601562h204.796876c14.140624 0 25.601562-11.460938 25.601562-25.601562-.039062-32.972657-26.757812-59.695313-59.734375-59.730469v-25.601563h145.066406c23.554688-.027344 42.640625-19.113281 42.667969-42.667968v-315.730469c-.027344-23.554688-19.113281-42.6406252-42.667969-42.667969zm-397.542969 421.65625c-6.605468 6.078125-16.792968 5.996094-23.300781-.183594-6.511719-6.183594-7.121093-16.351562-1.394531-23.265625.207031-.230469.394531-.417969.582031-.664062l64.109375-64.113281c3.628906 4.355468 7.417969 8.59375 11.46875 12.65625 4.054688 4.0625 8.296875 7.835937 12.640625 11.460937l-28.945312 28.953125zm389.011719-319.257812h-53.582031c-5.601562-7.722657-11.777344-15.015626-18.472656-21.816407-11.476563-11.402343-24.371094-21.277343-38.367188-29.382812h110.421875zm0 17.066406v196.269531h-47.488281c38.632812-59.207031 40.613281-135.128906 5.121094-196.269531zm-84.121093-26.820313c57.574218 57.570313 66.46875 147.796875 21.234374 215.5-45.230468 67.699219-131.988281 94.023438-207.210937 62.867188-75.226563-31.15625-117.964844-111.109375-102.085937-190.964844 15.882812-79.859375 85.960937-137.378906 167.382812-137.378906 45.285156-.121094 88.738281 17.875 120.679688 49.976562zm-253.441407-12.0625c-6.691406 6.800781-12.859375 14.09375-18.457031 21.816407h-53.582031v-51.199219h110.421875c-13.996094 8.105469-26.890625 17.980469-38.367188 29.382812zm-72.039062 38.882813h42.367187c-35.492187 61.140625-33.511718 137.0625 5.121094 196.269531h-47.488281zm98.433593 248.484375c8.980469 6.171875 18.492188 11.542969 28.414063 16.050781h-44.464844zm217.300782 118.449219c0 4.714843-3.820313 8.535156-8.535156 8.535156h-204.796876c-4.714843 0-8.535156-3.820313-8.535156-8.535156.027344-23.550782 19.113282-42.636719 42.667969-42.664063h136.53125c23.554687.027344 42.640625 19.113281 42.667969 42.664063zm-59.734375-59.730469h-102.398438v-25.601563h102.398438zm187.734375-68.269531c0 14.140624-11.460938 25.601562-25.601563 25.601562h-135.378906c20.378906-9.265625 38.9375-22.105469 54.792969-37.914062 4.265625-4.265626 8.25-8.703126 12.046875-13.285157h60.007812c9.425781 0 17.066407-7.640625 17.066407-17.066406v-264.535156c0-9.425781-7.640626-17.066407-17.066407-17.066407h-148.753906c-36.5-11.378906-75.59375-11.378906-112.09375 0h-148.753906c-9.425781 0-17.066407 7.640626-17.066407 17.066407v264.535156c0 9.425781 7.640626 17.066406 17.066407 17.066406h37.085937l-50.59375 50.59375c-11.972656-2.316406-20.621094-12.800781-20.625-24.996093v-315.730469c0-14.140625 11.460938-25.601563 25.601563-25.601563h426.664062c14.140625 0 25.601563 11.460938 25.601563 25.601563zm0 0"/><path d="m460.800781 435.199219c-28.265625.027343-51.171875 22.933593-51.199219 51.199219 0 14.140624 11.460938 25.601562 25.597657 25.601562h51.199219c14.140624 0 25.601562-11.460938 25.601562-25.601562-.027344-28.265626-22.933594-51.171876-51.199219-51.199219zm25.597657 59.734375h-51.199219c-4.710938 0-8.53125-3.820313-8.53125-8.535156.058593-15.515626 10.574219-29.039063 25.597656-32.921876v7.324219c0 4.710938 3.820313 8.53125 8.535156 8.53125 4.710938 0 8.53125-3.820312 8.53125-8.53125v-7.324219c15.027344 3.882813 25.542969 17.40625 25.601563 32.921876 0 4.714843-3.820313 8.535156-8.535156 8.535156zm0 0"/><path d="m213.332031 162.132812h-51.199219c-4.710937 0-8.53125 3.820313-8.53125 8.535157 0 4.710937 3.820313 8.53125 8.53125 8.53125h17.066407v55.46875c0 7.066406-5.730469 12.796875-12.800781 12.796875-7.066407 0-12.796876-5.730469-12.796876-12.796875 0-4.714844-3.820312-8.535157-8.535156-8.535157-4.710937 0-8.53125 3.820313-8.53125 8.535157 0 16.492187 13.371094 29.867187 29.863282 29.867187 16.496093 0 29.867187-13.375 29.867187-29.867187v-55.46875h17.066406c4.714844 0 8.535157-3.820313 8.535157-8.53125 0-4.714844-3.820313-8.535157-8.535157-8.535157zm0 0"/><path d="m256 162.132812c-18.851562 0-34.132812 15.28125-34.132812 34.132813v34.132813c0 18.851562 15.28125 34.136718 34.132812 34.136718s34.132812-15.285156 34.132812-34.136718v-34.132813c0-18.851563-15.28125-34.132813-34.132812-34.132813zm17.066406 68.265626c0 9.425781-7.640625 17.066406-17.066406 17.066406s-17.066406-7.640625-17.066406-17.066406v-34.132813c0-9.425781 7.640625-17.066406 17.066406-17.066406s17.066406 7.640625 17.066406 17.066406zm0 0"/><path d="m366.933594 192c0-16.496094-13.371094-29.867188-29.867188-29.867188h-21.332031c-9.425781 0-17.066406 7.640626-17.066406 17.066407v68.265625c0 9.425781 7.640625 17.070312 17.066406 17.070312h21.332031c12.144532.015625 23.085938-7.335937 27.664063-18.582031 4.578125-11.25 1.878906-24.152344-6.824219-32.621094 5.769531-5.597656 9.023438-13.292969 9.027344-21.332031zm-17.066406 42.667969c0 7.066406-5.730469 12.796875-12.800782 12.796875h-21.332031v-25.597656h21.332031c7.070313 0 12.800782 5.730468 12.800782 12.800781zm-34.132813-29.867188v-25.601562h21.332031c7.070313 0 12.800782 5.730469 12.800782 12.800781s-5.730469 12.800781-12.800782 12.800781zm0 0"/><path d="m85.332031 76.800781c0 4.710938-3.820312 8.53125-8.53125 8.53125-4.714843 0-8.535156-3.820312-8.535156-8.53125 0-4.714843 3.820313-8.535156 8.535156-8.535156 4.710938 0 8.53125 3.820313 8.53125 8.535156zm0 0"/><path d="m119.464844 76.800781c0 4.710938-3.820313 8.53125-8.53125 8.53125-4.714844 0-8.535156-3.820312-8.535156-8.53125 0-4.714843 3.820312-8.535156 8.535156-8.535156 4.710937 0 8.53125 3.820313 8.53125 8.535156zm0 0"/><path d="m147.386719 104.722656-.144531.167969c-59.796876 60.015625-59.710938 157.113281.1875 217.019531 2.886718 2.878906 5.914062 5.488282 8.960937 8.089844.195313.214844.410156.375.621094.574219 57.171875 48.34375 140.890625 48.34375 198.058593 0 .214844-.199219.429688-.359375.625-.574219 3.046876-2.558594 6.074219-5.210938 8.960938-8.089844 59.84375-59.910156 59.90625-156.957031.144531-216.949218h-.042969l-.144531-.171876c-60.003906-59.910156-157.183593-59.941406-217.226562-.066406zm187.972656-2.324218h-158.71875c47.417969-34.078126 111.300781-34.078126 158.71875 0zm-145.261719 230.402343h131.804688c-41.042969 22.535157-90.761719 22.535157-131.804688 0zm162.441406-22.921875c-2.074218 2.082032-4.269531 3.933594-6.476562 5.855469h-180.125c-2.183594-1.921875-4.402344-3.773437-6.476562-5.855469-52.371094-52.28125-53.460938-136.800781-2.449219-190.414062h197.976562c51.015625 53.609375 49.9375 138.128906-2.433593 190.414062zm0 0"/><path d="m273.066406 460.800781h-34.132812c-4.714844 0-8.535156 3.820313-8.535156 8.53125 0 4.714844 3.820312 8.535157 8.535156 8.535157h34.132812c4.714844 0 8.535156-3.820313 8.535156-8.535157 0-4.710937-3.820312-8.53125-8.535156-8.53125zm0 0"/></svg>