<svg id="Layer_1" enable-background="new 0 0 512.039 512.039" height="512" viewBox="0 0 512.039 512.039" width="512" xmlns="http://www.w3.org/2000/svg"><g><path d="m196.353 402.04h119.333v109.999h-119.333z" fill="#0078a8"/><path d="m256.02 402.04h59.667v109.999h-59.667z" fill="#005f90"/><path d="m34.913 123.557h442.213v293.483h-442.213z" fill="#d7f0f0"/><path d="m256.02 123.557h221.107v293.483h-221.107z" fill="#b0e9e7"/><path d="m492.126 432.04h-472.213v-323.483h472.213zm-442.213-30h412.213v-263.483h-412.213z" fill="#004c75"/><g><path d="m145.52 482.039h221v30h-221z" fill="#004c75"/></g><path d="m256.02 176.35c-24.481 0-44.399 19.917-44.399 44.398s19.917 44.398 44.399 44.398 44.398-19.917 44.398-44.398-19.917-44.398-44.398-44.398z" fill="#ff8852"/><path d="m272.363 265.148h-32.687c-31.68 0-57.454 25.773-57.454 57.454v47.043h147.595v-47.043c0-31.68-25.774-57.454-57.454-57.454z" fill="#ff8852"/><g fill="#ffcd70"><path d="m435.21 31.639-30.066-4.404-13.479-27.235-13.444 27.163-.036.072-30.068 4.404 21.737 21.236-5.103 29.952 26.84-14.067.074-.039 26.911 14.106-5.101-29.952z"/><path d="m299.565 31.639-30.066-4.404-13.479-27.235-13.444 27.163-.036.072-30.065 4.404 21.734 21.236-5.103 29.952 26.84-14.067.074-.039 26.911 14.106-5.101-29.952z"/><path d="m142.185 52.875 21.735-21.236-30.066-4.404-13.479-27.235-13.444 27.163-.036.072-30.065 4.404 21.676 21.179.059.057-5.102 29.952 26.912-14.106 26.914 14.106-5.09-29.873z"/></g><path d="m435.21 31.639-30.066-4.404-13.479-27.235-13.444 27.163-.036.072-30.068 4.404 21.737 21.236-5.103 29.952 26.84-14.067.074-.039 26.911 14.106-5.101-29.952z" fill="#ffac63"/><path d="m492.126 108.557h-236.106v30h206.106v263.483h-206.106v30h236.106z" fill="#00385b"/><path d="m256.02 482.039h110.5v30h-110.5z" fill="#00385b"/><path d="m256.02 176.35v88.797c24.481 0 44.398-19.917 44.398-44.398s-19.917-44.399-44.398-44.399z" fill="#ff651d"/><path d="m329.817 322.603c0-31.681-25.774-57.454-57.454-57.454h-16.343v104.497h73.798v-47.043z" fill="#ff651d"/><path d="m299.565 31.639-30.066-4.404-13.479-27.235v68.721l26.911 14.106-5.101-29.952z" fill="#ffac63"/></g></svg>